<?xml version="1.0" encoding="utf-8"?>
<!-- Generator: Adobe Illustrator 19.0.0, SVG Export Plug-In . SVG Version: 6.00 Build 0)  -->
<svg version="1.1" id="Capa_1" xmlns="http://www.w3.org/2000/svg" xmlns:xlink="http://www.w3.org/1999/xlink" x="0px" y="0px"
	 viewBox="0 0 2834.6 2834.6" style="enable-background:new 0 0 2834.6 2834.6;" xml:space="preserve">
<style type="text/css">
	.st0{fill:#FFFFFF;}
</style>
<g id="XMLID_81_">
	<path id="XMLID_327_" class="st0" d="M1877,661.6c-80.7-7-162.9-5.9-243.5,3.4c-76.2,8.8-151.7,24.8-223.9,47.7
		c-138.6,43.8-262.6,111.4-358.4,195.4c-17.1,15-33.2,30.4-48.1,46.1c-21.9,20.9-41.7,44.2-59.3,69.4
		c-15.8,22.8-29.4,46.9-40.7,71.8c-28,57.9-41.7,117.4-40,175.9c-0.1,3.7,0,7.5,0,11.2v254.7c0,83.1,17.1,154.1,52.5,217.1
		c44.7,79.4,155.5,177.9,213.9,223.6c25.6,20,47.8,37.7,69.3,54.8c14.2,11.2,27.7,22,41.1,32.6c24.9,19.6,49.5,38.6,77,59
		c15.7,12.3,31.2,24.3,49.1,37.4c14.2,10.4,31,15.9,48.5,15.9c0.3,0,0.6,0,0.9,0c17.9-0.2,34.9-6,49.1-16.9l33.4-25.6
		c1.9-1.3,3.9-2.7,5.8-4.2l82.2-62.9l117.1-89.7c0.2-0.1,0.3-0.2,0.5-0.4c58.5-45.7,170.2-144.2,214.9-223.6
		c35.4-63,53.5-134,53.5-217.1V953.5c0-0.2,0-0.5,0-0.7V763.5c0-0.6,0-1.2,0-1.9v-91.8L1877,661.6z M1142,1824.9
		c-50-45.4-98.3-96.6-118.3-132.2c-24.6-43.7-36.7-94.6-36.7-155.5v-32.7c0-1.6,0-3.1,0-4.7V1471h155V1824.9z M1142,1152.3V1371H987
		v-99.2v-0.2c5-44.3,12.4-87.3,30.9-127c17.2-34.1,42-68.1,73.1-101.1c24.7-23.4,52.6-42.8,83.6-57.5
		C1153.2,1034.1,1142,1090,1142,1152.3z M1657,754.7c0-2,0.9-3.7,3.1-3.7h86.5c2.1,0,2.4,1.6,2.4,3.7v20.7c0,2-0.3,2.7-2.4,2.7H1690
		v32h51.9c2.1,0,3.1,0.4,3.1,2.4v19.8c0,2-1,4.8-3.1,4.8H1690v27h57.9c2.1,0,6.1,3.3,6.1,5.3v20.7c0,2-4,1.1-6.1,1.1h-87.8
		c-2.1,0-3.1,1-3.1-1.1V754.7z M1545.2,751h86.3c2.1,0,2.5,1.6,2.5,3.7v20.7c0,2-0.3,2.7-2.5,2.7H1575v32h52.2
		c2.1,0,1.8,0.4,1.8,2.4v19.8c0,2,0.4,4.8-1.8,4.8H1575v52.9c0,2-2.3,1.1-4.4,1.1h-25.3c-2.1,0-2.2,1-2.2-1.1V754.7
		C1543,752.6,1543.1,751,1545.2,751z M1247,1152.3c0-24.9,1.1-48.2,5.3-69.7c28.8-81.4,106-139.8,197.1-139.8
		c67.1,0,128.5,31.3,168,84.6c-20.8,16.9-40.6,36-58.8,56.1c-73.1,80.4-119.3,177.6-133.3,287.6H1247V1152.3z M1626.5,1878.7
		l-199.1,152.4c-7.2,5.5-17.4,5.6-24.7,0.3c-45.7-33.5-81.8-63-124.8-97.1c-10.4-8.2-21.9-16.6-30.9-25.3V1471h174.6
		c5.1,87,30.5,167.5,74.1,240.4c36.8,61.5,85.8,115,143.4,157C1634.9,1871.9,1630.6,1875.4,1626.5,1878.7z M1844,1537.2
		c0,60.9-11.6,111.8-36.2,155.5c-16.3,29-51,68.2-90.3,106.2c-54.7-35.6-100.8-83.8-134.4-140c-34.1-57-54.3-119-59.3-188H1844
		V1537.2z M1844,1371h-315.7c13.3-83,49.4-157.4,105.3-219c56.9-62.6,130.4-107,210.4-127.6V1371z M1881,855.7
		c0,27.1-13.3,35.3-45.1,35.3h-59.3c-2.1,0-4.6,1-4.6-1.1V754.7c0-2,2.5-3.7,4.6-3.7h58.8c29.2,0,40.9,11.8,40.9,37.7
		c0,14.6-4.3,22.5-17.3,28.8v1.8c13,5.1,22,15,22,27.3V855.7z M1830.3,810H1804v-32h26.3c8.2,0,13.7,1.6,13.7,12.9v5.5
		C1844,807.3,1838,810,1830.3,810z M1850,846v7.9c0,9.7-6.4,10.1-16.7,10.1H1804v-31h29.3C1843.6,833,1850,836.1,1850,846z"/>
</g>
</svg>
