<svg width="285" height="94" xmlns="http://www.w3.org/2000/svg" xmlns:xlink="http://www.w3.org/1999/xlink" xml:space="preserve" overflow="hidden"><g transform="translate(-669 -154)"><g><g><g><g><path d="M60.4063 87.3538C56.2991 86.9531 52.1919 87.0533 48.0847 87.5541 44.1778 87.9549 40.3711 88.8564 36.7647 89.9584 29.7524 92.1623 23.4413 95.5683 18.6328 99.8758 17.7312 100.677 16.9298 101.378 16.2286 102.18 15.1266 103.282 14.1249 104.384 13.2233 105.686 12.4219 106.888 11.7206 108.09 11.1196 109.292 9.71711 112.198 9.01587 115.203 9.11605 118.208L9.11605 131.732C9.11605 135.939 10.0176 139.546 11.8208 142.751 14.1249 146.758 19.7347 151.767 22.6399 154.071 23.9422 155.073 25.0441 155.975 26.146 156.876 26.8473 157.477 27.5485 157.978 28.2497 158.479 29.552 159.481 30.7541 160.483 32.1566 161.484 32.958 162.085 33.7594 162.686 34.661 163.388 35.3623 163.889 36.2638 164.189 37.1654 164.189 38.067 164.189 37.1654 164.189 37.1654 164.189 38.067 164.189 38.9686 163.889 39.6698 163.287L41.3728 161.985C41.3728 161.985 41.5732 161.885 41.6734 161.785L45.8808 158.579 51.7912 154.071C54.7965 151.767 60.4063 146.758 62.7104 142.751 64.5136 139.546 65.4152 135.939 65.4152 131.732L65.4152 102.18 65.4152 92.563 65.4152 87.8547 60.6067 87.454 60.4063 87.454ZM23.1407 146.258C20.6363 143.953 18.1319 141.349 17.1302 139.546 15.928 137.342 15.2268 134.737 15.2268 131.632L15.2268 128.226 23.0406 128.226 23.0406 146.157 23.1407 146.157ZM23.1407 112.198 23.1407 123.317 15.327 123.317 15.327 118.308C15.6275 116.004 15.928 113.901 16.9298 111.897 17.8314 110.194 19.0335 108.491 20.6363 106.788 21.9386 105.586 23.3411 104.584 24.8437 103.883 23.7418 106.287 23.2409 109.192 23.2409 112.298ZM49.2868 92.0621C49.2868 92.0621 49.2868 91.8617 49.4871 91.8617L53.8949 91.8617 53.8949 93.0639 50.9898 93.0639 50.9898 94.6667 53.7947 94.6667 53.7947 95.6684C53.7947 95.6684 53.7947 95.8688 53.5944 95.8688L50.9898 95.8688 50.9898 97.2713 53.8949 97.2713C53.8949 97.2713 54.1954 97.4716 54.1954 97.5718L54.1954 98.5735 49.2868 98.5735 49.2868 91.7616 49.2868 92.0621ZM43.5767 91.8617 47.9845 91.8617C47.9845 91.8617 47.9845 91.8617 47.9845 92.0621L47.9845 93.0639C47.9845 93.0639 47.9845 93.0639 47.9845 93.0639L45.0794 93.0639 45.0794 94.6667 47.684 94.6667 47.684 95.8688 45.0794 95.8688 45.0794 98.5735 43.4765 98.5735 43.4765 91.5612 43.4765 91.8617ZM28.4501 112.198C28.4501 110.895 28.4501 109.793 28.7506 108.691 30.2533 104.584 34.1601 101.579 38.7683 101.579 43.3764 101.579 45.2797 103.182 47.2832 105.886 46.1813 106.788 45.1795 107.69 44.278 108.691 40.5714 112.799 38.2674 117.707 37.5661 123.317L28.5503 123.317 28.5503 112.198ZM47.684 148.962 37.5661 156.676C37.1654 156.976 36.6646 156.976 36.364 156.676 34.06 154.973 32.2568 153.47 30.0529 151.767 29.552 151.367 28.951 150.966 28.4501 150.465L28.4501 128.226 37.2656 128.226C37.5661 132.634 38.7683 136.741 40.9721 140.447 42.8755 143.553 45.2797 146.258 48.285 148.361 48.0847 148.562 47.8843 148.762 47.684 148.862ZM58.8035 131.732C58.8035 134.837 58.2025 137.442 57.0004 139.646 56.1989 141.148 54.3958 143.152 52.3922 145.055 49.5873 143.252 47.2832 140.848 45.5802 137.943 43.8773 135.038 42.8755 131.932 42.575 128.426L58.8035 128.426 58.8035 131.832ZM58.8035 123.317 42.7753 123.317C43.4765 119.11 45.2797 115.303 48.0847 112.198 50.9898 108.992 54.6963 106.788 58.7034 105.686L58.7034 123.217 58.8035 123.217ZM60.6067 97.1711C60.6067 98.5735 59.9055 98.9743 58.3026 98.9743L55.097 98.9743 55.097 92.1623C55.097 92.1623 55.097 91.9619 55.2974 91.9619L58.3026 91.9619C59.8053 91.9619 60.4063 92.563 60.4063 93.8653 60.4063 95.1675 60.206 94.9672 59.5048 95.3679 60.206 95.6684 60.6067 96.2695 60.6067 96.8705L60.6067 97.3714C60.6067 97.3714 60.6067 97.1711 60.6067 97.1711ZM58.1023 94.867 56.8 94.867 56.8 93.2642 58.1023 93.2642C58.503 93.2642 58.8035 93.2642 58.8035 93.9654L58.8035 94.266C58.8035 94.867 58.503 94.9672 58.1023 94.9672ZM59.1041 96.6702 59.1041 97.0709C59.1041 97.5718 58.8035 97.5718 58.3026 97.5718L56.8 97.5718 56.8 95.969 58.3026 95.969C58.8035 95.969 59.1041 96.1693 59.1041 96.6702Z" fill="#FFFFFF" fill-rule="nonzero" fill-opacity="1" transform="matrix(1 0 0 1.00437 670 75.4206)"/><path d="M100.595 107.523 104.511 107.523 104.511 111.438 100.595 111.438Z" fill="#FFFFFF" fill-rule="nonzero" fill-opacity="1" transform="matrix(0.70557 -0.708653 0.70557 0.708653 622.717 180.261)"/><path d="M100.595 116.658 104.511 116.658 104.511 120.574 100.595 120.574Z" fill="#FFFFFF" fill-rule="nonzero" fill-opacity="1" transform="matrix(0.70557 -0.708653 0.70557 0.708653 616.305 182.876)"/><path d="M100.595 89.1504 104.511 89.1504 104.511 93.0657 100.595 93.0657Z" fill="#FFFFFF" fill-rule="nonzero" fill-opacity="1" transform="matrix(0.70557 -0.708653 0.70557 0.708653 635.64 174.827)"/><path d="M100.595 144.066 104.511 144.066 104.511 147.982 100.595 147.982Z" fill="#FFFFFF" fill-rule="nonzero" fill-opacity="1" transform="matrix(0.70557 -0.708653 0.70557 0.708653 596.971 190.926)"/><path d="M100.595 98.2863 104.511 98.2863 104.511 102.202 100.595 102.202Z" fill="#FFFFFF" fill-rule="nonzero" fill-opacity="1" transform="matrix(0.70557 -0.708653 0.70557 0.708653 629.228 177.544)"/><path d="M100.696 125.694 104.611 125.694 104.611 129.609 100.696 129.609Z" fill="#FFFFFF" fill-rule="nonzero" fill-opacity="1" transform="matrix(0.70557 -0.708653 0.70557 0.708653 609.894 185.694)"/><path d="M100.595 153.202 104.511 153.202 104.511 157.117 100.595 157.117Z" fill="#FFFFFF" fill-rule="nonzero" fill-opacity="1" transform="matrix(0.70557 -0.708653 0.70557 0.708653 590.46 193.642)"/><path d="M100.595 134.93 104.511 134.93 104.511 138.846 100.595 138.846Z" fill="#FFFFFF" fill-rule="nonzero" fill-opacity="1" transform="matrix(0.70557 -0.708653 0.70557 0.708653 603.383 188.31)"/><path d="M173.105 154.973C173.606 148.662 174.407 142.05 174.507 135.739 174.507 134.837 174.507 134.236 174.307 133.735 173.806 132.333 171.802 133.235 171.302 134.136L169.699 155.374 156.475 157.277C156.976 150.966 157.678 144.354 157.878 138.043 157.878 137.141 157.878 136.44 157.778 136.04 157.177 134.637 155.374 135.539 154.873 136.54L153.27 157.678 140.047 159.581 142.551 127.925 155.774 126.022 155.774 127.124C159.581 124.419 165.792 121.915 169.498 126.523 175.91 120.813 187.53 118.308 188.031 129.728 188.031 130.63 188.031 131.632 188.031 132.734L186.528 152.869 173.305 154.772Z" fill="#FFFFFF" fill-rule="nonzero" fill-opacity="1" transform="matrix(1 0 0 1.00437 670 75.4206)"/><path d="M192.138 134.136 192.94 123.417 206.163 121.514 205.261 132.233 203.859 150.465 190.636 152.368 192.038 134.136Z" fill="#FFFFFF" fill-rule="nonzero" fill-opacity="1" transform="matrix(1 0 0 1.00437 670 75.4206)"/><path d="M239.321 145.156 226.098 147.059 227.3 131.331C227.3 130.73 227.3 130.229 227.3 129.628 227.3 129.127 227.3 128.526 227.3 128.025 227.3 127.525 227.3 127.124 227.3 126.723 227.3 126.322 227.3 126.122 227.2 125.922 226.499 124.519 224.095 125.12 223.594 126.423L221.991 147.56 208.768 149.463 211.172 117.807 224.395 115.904 224.395 117.106C228.402 114.502 234.513 111.697 238.72 116.104 240.423 117.908 241.125 120.813 240.824 124.92L239.221 145.055Z" fill="#FFFFFF" fill-rule="nonzero" fill-opacity="1" transform="matrix(1 0 0 1.00437 670 75.4206)"/><path d="M245.432 126.122 246.234 115.403 259.457 113.5 258.555 124.219 257.153 142.451 243.929 144.354 245.332 126.122Z" fill="#FFFFFF" fill-rule="nonzero" fill-opacity="1" transform="matrix(1 0 0 1.00437 670 75.4206)"/><path d="M149.463 102.581C150.465 102.48 151.367 102.781 152.168 103.582 152.969 104.384 153.57 105.386 153.671 106.588 153.871 107.79 153.671 109.092 153.37 110.695 153.07 112.198 152.468 113.7 151.767 115.203 151.066 116.705 150.164 117.908 149.062 119.01 147.96 120.111 146.758 120.713 145.356 120.913 144.555 120.913 143.953 120.913 143.352 120.713 142.852 120.512 142.351 120.212 142.05 119.811 141.649 119.41 141.449 119.01 141.249 118.509 141.048 118.008 140.948 117.607 140.848 117.106 140.347 119.21 139.846 121.614 139.546 124.219 139.145 126.823 139.045 129.829 139.245 133.235 139.245 133.635 138.945 133.936 138.344 134.036 137.743 134.036 137.041 134.036 136.24 133.836 135.539 133.635 134.737 133.134 134.136 132.533 133.435 131.932 133.134 131.131 133.134 130.029 133.134 129.228 133.335 128.126 133.735 126.723 134.136 125.321 134.637 123.718 135.238 122.015 135.839 120.312 136.34 118.509 136.941 116.605 137.542 114.802 137.943 112.999 138.243 111.296 138.544 109.593 138.644 108.09 138.544 106.788 138.444 105.486 137.943 104.484 137.141 103.783 137.141 103.783 137.141 103.482 137.642 103.182 138.043 102.881 138.644 102.681 139.245 102.48 139.846 102.28 140.547 102.18 141.249 102.18 141.95 102.18 142.451 102.38 142.852 102.781 143.252 103.282 143.553 103.783 143.753 104.384 143.953 104.985 143.953 105.586 143.853 106.287 144.454 105.386 145.156 104.584 146.157 103.883 147.059 103.081 148.261 102.681 149.563 102.48ZM145.957 114.201C146.458 114.101 146.959 113.8 147.46 113.299 147.96 112.799 148.361 112.198 148.762 111.596 149.163 110.895 149.363 110.294 149.563 109.593 149.764 108.892 149.764 108.291 149.764 107.79 149.764 107.189 149.463 106.688 149.163 106.387 148.862 106.087 148.461 105.987 148.061 106.187 147.66 106.187 147.159 106.588 146.658 107.089 146.157 107.589 145.656 108.19 145.256 108.892 144.855 109.593 144.454 110.294 144.254 110.995 144.054 111.697 143.953 112.398 143.953 112.999 143.953 113.4 144.154 113.7 144.454 114.101 144.755 114.502 145.256 114.602 145.957 114.401ZM162.787 91.3608C163.087 90.9601 163.488 90.7598 163.989 90.5594 164.49 90.4593 164.89 90.3591 165.291 90.4593 165.692 90.4593 165.992 90.6596 166.193 90.86 166.393 91.0603 166.393 91.3608 166.193 91.6614 165.992 91.8617 165.692 92.3626 165.391 93.164 165.091 93.9654 164.59 94.867 164.089 95.8688 163.588 96.9707 163.087 98.0727 162.686 99.375 162.186 100.677 161.785 101.98 161.384 103.282 160.983 104.584 160.683 105.886 160.483 107.089 160.282 108.291 160.282 109.393 160.382 110.294 160.382 110.895 160.583 111.296 160.883 111.697 161.084 112.097 161.584 112.198 162.386 112.097 162.887 112.097 163.287 111.797 163.788 111.296 164.289 110.795 164.69 110.294 165.091 109.693 165.491 109.092 165.792 108.491 166.092 107.99 166.393 107.389 166.593 106.988 166.693 106.688 166.794 106.387 166.994 106.387 167.194 106.688 167.495 106.988 167.595 107.289 167.695 107.79 167.695 107.89 167.695 108.291 167.695 108.892 167.695 109.493 167.495 110.194 167.194 110.995 166.994 111.797 166.693 112.698 166.293 113.7 165.892 114.602 165.391 115.503 164.89 116.305 164.289 117.106 163.588 117.807 162.787 118.408 161.985 119.01 161.084 119.41 159.982 119.51 159.08 119.611 158.379 119.51 157.778 119.31 157.177 119.01 156.676 118.709 156.275 118.208 155.874 117.807 155.574 117.307 155.374 116.806 155.173 116.305 155.073 115.804 154.973 115.403 154.772 114.001 154.873 112.498 155.073 110.795 155.374 109.092 155.774 107.489 156.275 105.786 156.776 104.083 157.477 102.38 158.078 100.777 158.78 99.1746 159.481 97.672 160.082 96.3697 160.783 95.0674 161.284 93.9654 161.885 93.0639 162.386 92.1623 162.787 91.5612 162.987 91.2607ZM186.629 104.183C186.629 103.883 186.929 103.883 187.129 104.183 187.43 104.484 187.53 104.784 187.63 105.285 187.63 105.386 187.63 105.786 187.63 106.387 187.63 106.988 187.43 107.69 187.129 108.491 186.929 109.292 186.629 110.194 186.228 111.196 185.827 112.097 185.326 112.999 184.825 113.8 184.224 114.602 183.523 115.303 182.722 115.904 181.92 116.505 181.019 116.906 179.917 117.006 179.115 117.106 178.414 117.006 177.813 116.806 177.212 116.605 176.711 116.305 176.411 115.904 176.01 115.503 175.709 115.103 175.509 114.602 175.309 114.101 175.108 113.7 175.008 113.299 174.407 114.502 173.606 115.503 172.904 116.205 172.103 117.006 171.302 117.407 170.4 117.507 169.899 117.507 169.398 117.507 168.897 117.407 168.396 117.307 167.896 117.006 167.395 116.705 166.894 116.405 166.493 115.904 166.193 115.303 165.892 114.702 165.592 114.001 165.491 113.199 165.291 111.596 165.391 109.893 165.792 108.291 166.193 106.688 166.794 105.285 167.595 103.983 168.396 102.681 169.198 101.679 170.2 100.878 171.101 100.076 172.003 99.5753 172.904 99.4751 174.107 99.2748 175.108 99.4751 175.709 100.176 176.31 100.777 176.711 101.579 177.012 102.48 177.513 101.378 178.114 100.377 178.614 99.6755 179.115 98.9743 179.817 98.5735 180.317 98.4734 180.618 98.4734 181.019 98.4734 181.319 98.4734 181.62 98.4734 181.92 98.6737 182.121 98.7739 182.321 98.8741 182.421 99.0744 182.521 99.375 182.521 99.5753 182.521 99.8758 182.321 100.076 182.121 100.377 181.92 100.777 181.72 101.378 181.52 101.98 181.319 102.581 181.119 103.282 180.919 103.983 180.818 104.784 180.718 105.486 180.718 106.187 180.618 106.888 180.718 107.489 180.718 108.09 180.919 108.491 181.119 108.892 181.319 109.292 181.82 109.393 182.521 109.292 183.022 109.292 183.423 108.992 183.924 108.491 184.425 107.99 184.825 107.489 185.226 106.888 185.627 106.287 185.927 105.686 186.228 105.185 186.528 104.684 186.729 104.183 186.829 103.883ZM172.303 110.895C172.704 110.895 173.105 110.595 173.606 110.194 174.006 109.793 174.407 109.292 174.708 108.691 175.008 108.09 175.208 107.489 175.409 106.788 175.609 106.087 175.609 105.486 175.509 104.885 175.509 104.284 175.309 103.783 175.108 103.282 174.908 102.781 174.507 102.581 174.107 102.681 173.606 102.681 173.105 102.981 172.704 103.482 172.203 103.983 171.802 104.484 171.502 105.185 171.101 105.786 170.901 106.487 170.701 107.189 170.5 107.89 170.5 108.591 170.5 109.092 170.5 109.693 170.801 110.094 171.201 110.495 171.602 110.795 172.003 110.995 172.504 110.895ZM204.861 101.679C205.061 101.679 205.261 101.679 205.462 101.98 205.662 102.18 205.762 102.581 205.862 103.081 205.862 103.282 205.862 103.683 205.862 104.284 205.862 104.885 205.562 105.586 205.362 106.487 205.061 107.289 204.76 108.19 204.36 109.092 203.959 109.994 203.458 110.895 202.857 111.697 202.256 112.498 201.555 113.199 200.753 113.7 199.952 114.301 199.05 114.602 198.149 114.702 196.746 114.902 195.544 114.502 194.743 113.7 193.841 112.799 193.34 111.697 193.14 110.194 193.04 109.192 193.14 108.291 193.24 107.289 193.441 106.387 193.741 105.486 194.042 104.684 194.342 103.883 194.643 103.182 194.943 102.581 195.244 101.98 195.344 101.579 195.244 101.278 195.244 100.978 195.144 100.878 194.943 100.878 194.743 100.878 194.242 101.378 193.541 102.38 192.84 103.382 192.038 104.484 191.337 105.987 190.535 107.389 189.934 108.892 189.333 110.495 188.832 112.097 188.632 113.6 188.732 114.902 188.732 114.902 188.732 115.103 188.532 115.203 188.432 115.303 188.231 115.403 188.031 115.403 187.831 115.403 187.53 115.403 187.129 115.303 186.729 115.203 186.328 115.002 185.927 114.702 185.527 114.401 185.226 114.101 184.926 113.8 184.625 113.4 184.425 112.999 184.425 112.498 184.325 111.396 184.425 110.294 184.725 109.192 185.026 108.09 185.426 106.988 185.827 105.886 186.228 104.784 186.629 103.582 186.929 102.38 187.23 101.178 187.33 99.8758 187.129 98.5735 187.129 98.1728 187.23 97.9725 187.63 97.8723 188.031 97.7721 188.432 97.7721 188.933 97.8723 189.434 97.9725 189.834 98.1728 190.335 98.4734 190.736 98.7739 191.036 99.1746 191.137 99.6755 191.137 100.377 191.137 101.078 190.936 101.579 190.736 102.08 190.535 102.681 190.335 103.282 191.137 101.278 192.138 99.6755 193.24 98.4734 194.342 97.2713 195.444 96.6702 196.646 96.4698 197.147 96.4698 197.548 96.4698 197.949 96.57 198.349 96.6702 198.65 96.8705 198.85 97.0709 199.05 97.2713 199.251 97.5718 199.351 97.8723 199.451 98.1728 199.551 98.3732 199.551 98.6737 199.551 99.0744 199.551 99.4751 199.451 99.976 199.351 100.477 199.151 100.978 198.95 101.579 198.75 102.18 198.65 102.781 198.55 103.482 198.449 104.183 198.449 104.885 198.55 105.586 198.55 105.886 198.75 106.287 199.05 106.688 199.351 107.089 199.752 107.289 200.353 107.189 200.753 107.189 201.154 106.888 201.655 106.588 202.056 106.187 202.456 105.786 202.857 105.285 203.258 104.784 203.659 104.183 203.959 103.582 204.26 102.981 204.56 102.38 204.76 101.779 204.76 101.779 204.76 101.779 204.76 101.679 204.76 101.679 204.861 101.579 204.861 101.579ZM218.084 100.076C218.084 99.8758 218.284 99.8758 218.585 100.076 218.885 100.277 218.986 100.677 219.086 101.178 219.086 101.479 219.086 101.879 219.086 102.48 219.086 103.081 218.785 103.783 218.585 104.584 218.284 105.386 217.984 106.187 217.583 106.988 217.182 107.79 216.681 108.591 215.98 109.393 215.379 110.094 214.678 110.795 213.776 111.296 212.975 111.797 211.973 112.097 210.971 112.298 210.17 112.398 209.369 112.298 208.467 112.097 207.666 111.897 206.864 111.496 206.163 111.096 205.462 110.595 204.861 109.994 204.46 109.292 203.959 108.591 203.659 107.69 203.558 106.688 203.358 105.386 203.558 103.983 203.859 102.581 204.26 101.178 204.76 99.976 205.562 98.7739 206.263 97.5718 207.165 96.6702 208.167 95.8688 209.168 95.0674 210.27 94.6667 211.372 94.4663 211.572 94.4663 211.873 94.4663 212.374 94.4663 212.775 94.4663 213.275 94.5665 213.676 94.7668 214.177 94.9672 214.578 95.2677 214.878 95.6684 215.279 96.0691 215.479 96.6702 215.58 97.4716 215.58 98.273 215.58 98.9743 215.079 99.6755 214.678 100.377 214.077 100.978 213.476 101.579 212.875 102.18 212.174 102.581 211.472 102.981 210.771 103.382 210.17 103.582 209.769 103.582 209.469 103.582 209.268 103.582 208.968 103.582 208.667 103.582 208.467 103.382 208.267 103.282 208.267 103.582 208.267 103.883 208.267 104.083 208.267 104.484 208.467 104.885 208.667 105.185 208.868 105.486 209.168 105.686 209.569 105.886 209.869 106.087 210.27 106.187 210.571 106.187 210.871 106.187 211.272 106.187 211.572 106.187 212.474 106.087 213.376 105.786 214.077 105.486 214.778 105.085 215.379 104.684 215.88 104.083 216.381 103.482 216.882 102.881 217.283 102.18 217.683 101.479 217.984 100.777 218.284 99.976ZM211.472 97.2713C211.172 97.2713 210.871 97.4716 210.571 97.7721 210.27 98.0727 209.97 98.3732 209.669 98.8741 209.369 99.2748 209.068 99.7757 208.868 100.377 208.667 100.978 208.467 101.479 208.267 102.08 208.768 102.18 209.168 102.08 209.669 101.879 210.17 101.579 210.571 101.278 210.971 100.878 211.372 100.477 211.673 99.976 211.973 99.5753 212.174 99.0744 212.374 98.6737 212.274 98.3732 212.274 97.7721 211.873 97.4716 211.472 97.4716ZM230.005 88.5559C230.105 88.5559 230.105 88.5559 230.105 88.8564 230.105 89.0568 230.105 89.3573 229.905 89.6579 229.805 89.9584 229.604 90.2589 229.404 90.4593 229.204 90.6596 229.003 90.86 228.703 90.86L224.996 91.3608C224.295 93.3644 223.594 95.2677 223.093 97.2713 222.592 99.2748 222.392 100.978 222.592 102.38 222.592 102.981 222.792 103.382 223.093 103.783 223.293 104.183 223.794 104.284 224.495 104.183 224.996 104.183 225.497 103.883 225.898 103.382 226.298 102.881 226.799 102.38 227.2 101.779 227.601 101.178 227.901 100.577 228.202 100.076 228.502 99.4751 228.703 99.0744 228.803 98.7739 228.803 98.4734 229.103 98.4734 229.304 98.7739 229.604 99.0744 229.704 99.375 229.805 99.8758 229.805 99.976 229.805 100.377 229.704 100.978 229.704 101.579 229.404 102.28 229.204 103.081 229.003 103.883 228.703 104.784 228.302 105.786 227.901 106.688 227.4 107.589 226.799 108.391 226.198 109.192 225.497 109.893 224.796 110.495 223.994 111.096 223.093 111.496 221.991 111.596 221.089 111.697 220.388 111.596 219.787 111.396 219.186 111.096 218.685 110.795 218.284 110.294 217.884 109.893 217.583 109.393 217.383 108.892 217.182 108.391 217.082 107.89 216.982 107.489 216.882 106.387 216.882 105.085 216.982 103.783 217.182 102.48 217.383 101.078 217.783 99.7757 218.184 98.3732 218.585 97.0709 219.086 95.6684 219.587 94.266 220.087 92.9637 220.689 91.7616L215.379 92.4628C214.979 92.4628 214.778 92.4628 214.878 92.0621 214.878 91.7616 215.079 91.3608 215.279 90.9601 215.479 90.5594 215.78 90.1587 216.181 89.8582 216.481 89.5577 216.782 89.3573 217.082 89.2571 217.283 89.2571 217.783 89.2571 218.685 89.2571 219.587 89.2571 220.689 89.2571 221.991 89.157 222.191 88.6561 222.392 88.3556 222.492 88.055 222.592 87.7545 222.692 87.5541 222.792 87.454 222.792 87.2536 222.993 87.1534 223.093 87.0533 223.093 87.0533 223.293 86.8529 223.393 86.6526 223.694 86.2519 224.095 85.8511 224.696 85.5506 225.297 85.1499 225.898 84.8494 226.399 84.649 227 84.4487 227.4 84.3485 227.701 84.3485 228.001 84.3485 228.102 84.5489 227.801 84.8494 227.601 85.1499 227.3 85.6508 227 86.352 226.599 87.0533 226.198 87.9549 225.798 88.9566 227.2 88.9566 228.602 88.7563 229.905 88.5559ZM249.239 96.2695C249.239 95.969 249.539 95.969 249.74 96.2695 250.04 96.57 250.14 96.8705 250.241 97.3714 250.241 97.4716 250.241 97.8723 250.241 98.4734 250.241 99.0744 250.04 99.7757 249.74 100.577 249.539 101.378 249.239 102.28 248.838 103.282 248.437 104.183 247.937 105.085 247.436 105.886 246.835 106.688 246.133 107.389 245.332 107.99 244.531 108.591 243.629 108.992 242.527 109.092 241.726 109.192 241.024 109.092 240.423 108.892 239.822 108.691 239.321 108.391 239.021 107.99 238.62 107.589 238.32 107.189 238.119 106.688 237.919 106.187 237.719 105.786 237.618 105.386 237.017 106.588 236.216 107.589 235.515 108.291 234.713 109.092 233.912 109.493 233.01 109.593 232.509 109.593 232.008 109.593 231.508 109.493 231.007 109.393 230.506 109.092 230.005 108.792 229.504 108.491 229.103 107.99 228.803 107.389 228.502 106.788 228.202 106.087 228.102 105.285 227.901 103.683 228.001 101.98 228.402 100.377 228.803 98.7739 229.404 97.3714 230.205 96.0691 231.007 94.7668 231.808 93.7651 232.81 92.9637 233.711 92.1623 234.613 91.6614 235.515 91.5612 236.717 91.3608 237.719 91.5612 238.32 92.2624 238.921 92.8635 239.321 93.6649 239.622 94.5665 240.123 93.4646 240.724 92.4628 241.225 91.7616 241.826 91.0603 242.427 90.6596 242.928 90.5594 243.228 90.5594 243.629 90.5594 243.929 90.5594 244.23 90.5594 244.531 90.7598 244.731 90.86 244.931 90.9601 245.031 91.1605 245.132 91.461 245.132 91.6614 245.132 91.9619 244.931 92.1623 244.731 92.4628 244.531 92.8635 244.33 93.4646 244.13 94.0656 243.929 94.6667 243.729 95.3679 243.529 96.0691 243.429 96.8705 243.328 97.5718 243.328 98.273 243.228 98.9743 243.328 99.5753 243.328 100.176 243.529 100.577 243.729 100.978 243.929 101.378 244.43 101.479 245.132 101.378 245.632 101.378 246.033 101.078 246.534 100.577 247.035 100.076 247.436 99.5753 247.836 98.9743 248.237 98.3732 248.538 97.7721 248.838 97.2713 249.139 96.6702 249.339 96.2695 249.439 95.969ZM234.914 102.881C235.314 102.881 235.715 102.581 236.216 102.18 236.617 101.779 237.017 101.278 237.318 100.677 237.618 100.076 237.819 99.4751 238.019 98.7739 238.219 98.0727 238.219 97.4716 238.119 96.8705 238.119 96.2695 237.919 95.7686 237.719 95.2677 237.518 94.7668 237.117 94.5665 236.717 94.6667 236.216 94.6667 235.715 94.9672 235.314 95.4681 234.813 95.969 234.413 96.4698 234.112 97.1711 233.711 97.7721 233.511 98.4734 233.311 99.1746 233.11 99.8758 233.11 100.577 233.11 101.078 233.11 101.679 233.411 102.08 233.812 102.48 234.212 102.781 234.613 102.981 235.114 102.881Z" fill="#FFFFFF" fill-rule="nonzero" fill-opacity="1" transform="matrix(1 0 0 1.00437 670 75.4206)"/></g></g></g></g></g></svg>